<?xml version="1.0" encoding="UTF-8" standalone="no"?>
<!-- Created with Inkscape (http://www.inkscape.org/) -->

<svg
   width="512.0px"
   height="512.0px"
   viewBox="0 0 512.0 512.0"
   version="1.1"
   id="SVGRoot"
   sodipodi:docname="emerita.svg"
   inkscape:version="1.2 (dc2aedaf03, 2022-05-15)"
   xmlns:inkscape="http://www.inkscape.org/namespaces/inkscape"
   xmlns:sodipodi="http://sodipodi.sourceforge.net/DTD/sodipodi-0.dtd"
   xmlns="http://www.w3.org/2000/svg"
   xmlns:svg="http://www.w3.org/2000/svg">
  <sodipodi:namedview
     id="namedview3939"
     pagecolor="#505050"
     bordercolor="#ffffff"
     borderopacity="1"
     inkscape:showpageshadow="0"
     inkscape:pageopacity="0"
     inkscape:pagecheckerboard="1"
     inkscape:deskcolor="#505050"
     inkscape:document-units="px"
     showgrid="true"
     inkscape:zoom="1.4796679"
     inkscape:cx="274.38589"
     inkscape:cy="284.86121"
     inkscape:window-width="1920"
     inkscape:window-height="1006"
     inkscape:window-x="0"
     inkscape:window-y="0"
     inkscape:window-maximized="1"
     inkscape:current-layer="layer1">
    <inkscape:grid
       type="xygrid"
       id="grid3945" />
  </sodipodi:namedview>
  <defs
     id="defs3934" />
  <g
     inkscape:label="Layer 1"
     inkscape:groupmode="layer"
     id="layer1">
    <ellipse
       style="fill:#803300;stroke:#1a1a1a;stroke-width:1.71563;stroke-miterlimit:1.41421"
       id="ellipse4506"
       cx="257.33414"
       cy="309.43179"
       rx="16.562576"
       ry="94.186394"
       transform="matrix(0.99886771,-0.04757406,0.00624746,0.99998048,0,0)" />
    <ellipse
       style="fill:#d38d5f;stroke:#1a1a1a;stroke-width:1.71563;stroke-miterlimit:1.41421"
       id="path4322"
       cx="216.38225"
       cy="346.67963"
       rx="16.562576"
       ry="94.186394"
       transform="matrix(0.99364783,-0.11253442,0.07136806,0.99745005,0,0)" />
    <ellipse
       style="fill:#d38d5f;stroke:#1a1a1a;stroke-width:1.71612;stroke-miterlimit:1.41421"
       id="ellipse4353"
       cx="307.23633"
       cy="278.99951"
       rx="16.58919"
       ry="94.089912"
       transform="matrix(0.98927811,0.14604389,-0.0928633,0.99567887,0,0)" />
    <path
       id="path4508"
       style="fill:#552200;stroke:#1a1a1a;stroke-width:1.53235;stroke-miterlimit:1.41421"
       d="m 118.05012,158.49498 -97.765515,69.34511 0.04198,0.0568 6.04562,68.63279 6.051612,68.64774 6.377818,-67.4476 5.420113,-57.30772 87.778272,-62.26394 z" />
    <path
       id="path4568"
       style="fill:#552200;stroke:#1a1a1a;stroke-width:1.53235;stroke-miterlimit:1.41421"
       d="m 135.07689,169.08941 -97.76551,69.34511 0.04198,0.0568 6.04562,68.63279 6.051611,68.64774 6.377818,-67.4476 5.420113,-57.30772 87.778268,-62.26394 z" />
    <path
       id="path4536"
       style="fill:#552200;stroke:#1a1a1a;stroke-width:1.12741;stroke-miterlimit:1.41421"
       d="m 148.05965,201.51329 -62.846666,58.39393 0.0282,0.048 3.8863,57.79407 3.890177,57.80667 4.099849,-56.79605 3.48422,-48.25752 56.42657,-52.431 z" />
    <path
       id="rect4434"
       style="fill:#552200;stroke:#1a1a1a;stroke-width:1.53235;stroke-miterlimit:1.41421"
       d="m 153.27069,171.64095 -97.765509,69.34511 0.04199,0.0568 6.045619,68.63279 6.051612,68.64774 6.377819,-67.4476 5.420111,-57.30772 87.778278,-62.26393 z" />
    <path
       id="path4211"
       style="fill:#c87137;stroke:#1a1a1a;stroke-width:1.43029;stroke-miterlimit:1.41421"
       d="m 120.6245,209.08078 a 30.15882,54.967345 0 0 0 -30.156302,54.96429 30.15882,54.967345 0 0 0 0.269373,7.13802 109.80103,45.285828 72.61921 0 0 -5.051994,115.57318 109.80103,45.285828 72.61921 0 0 48.568503,82.72926 l -3.94761,-44.38745 -6.02766,-67.72294 33.59211,59.33989 21.62956,38.21313 a 109.80103,45.285828 72.61921 0 0 -7.38044,-95.22755 109.80103,45.285828 72.61921 0 0 -64.78694,-91.45653 30.15882,54.967345 0 0 1 -0.14971,-4.19901 30.15882,54.967345 0 0 1 21.84204,-52.7765 30.15882,54.967345 0 0 0 -8.40102,-2.18779 z" />
    <path
       id="path4570"
       style="fill:#552200;stroke:#1a1a1a;stroke-width:1.53235;stroke-miterlimit:1.41421"
       d="m 400.36657,158.49498 97.76551,69.34511 -0.042,0.0568 -6.04561,68.63279 -6.05162,68.64774 -6.37782,-67.4476 -5.42011,-57.30772 -87.77827,-62.26394 z" />
    <path
       id="path4572"
       style="fill:#552200;stroke:#1a1a1a;stroke-width:1.53235;stroke-miterlimit:1.41421"
       d="m 383.33979,169.08941 97.76551,69.34511 -0.0419,0.0568 -6.04562,68.63279 -6.05161,68.64774 -6.37781,-67.4476 -5.42012,-57.30772 -87.77828,-62.26394 z" />
    <path
       id="path4574"
       style="fill:#552200;stroke:#1a1a1a;stroke-width:1.12741;stroke-miterlimit:1.41421"
       d="m 370.35703,201.51329 62.84667,58.39393 -0.0282,0.048 -3.8863,57.79407 -3.89017,57.80667 -4.09986,-56.79605 -3.48423,-48.25752 -56.42657,-52.431 z" />
    <path
       id="path4576"
       style="fill:#552200;stroke:#1a1a1a;stroke-width:1.53235;stroke-miterlimit:1.41421"
       d="m 365.14599,171.64095 97.76551,69.34511 -0.0419,0.0568 -6.04562,68.63279 -6.05161,68.64774 -6.37781,-67.4476 -5.42012,-57.30772 -87.77828,-62.26393 z" />
    <path
       id="path4432"
       style="fill:#c87137;stroke:#1a1a1a;stroke-width:1.43029;stroke-miterlimit:1.41421"
       d="m 396.94327,207.12009 a 30.15882,54.967345 0 0 1 30.15629,54.9643 30.15882,54.967345 0 0 1 -0.26937,7.13802 45.285828,109.80103 17.38079 0 1 5.05199,115.57318 45.285828,109.80103 17.38079 0 1 -48.5685,82.72926 l 3.94762,-44.38744 6.02766,-67.72296 -33.59212,59.33989 -21.62957,38.21313 a 45.285828,109.80103 17.38079 0 1 7.38045,-95.22755 45.285828,109.80103 17.38079 0 1 64.78695,-91.45652 30.15882,54.967345 0 0 0 0.1497,-4.19901 30.15882,54.967345 0 0 0 -21.84204,-52.7765 30.15882,54.967345 0 0 1 8.40101,-2.1878 z" />
    <path
       id="path4116"
       style="fill:#a05a2c;stroke:#1a1a1a;stroke-width:0.96502;stroke-miterlimit:1.41421"
       d="m 413.26439,192.75056 c 0,71.05359 -45.91449,131.19186 -109.19151,151.35314 -14.7126,4.68773 -28.60727,-79.22835 -44.83827,-79.22835 -15.13027,0 -31.51333,84.24714 -45.34532,80.15214 -64.82374,-19.19124 -112.19761,-80.10295 -112.19761,-152.27693 0,-32.8152 50.92972,-62.52363 73.31217,-96.277614 22.38244,-33.754008 29.37861,-54.782472 83.17738,-54.782472 49.98806,0 56.56358,17.971462 85.06962,55.228672 20.55797,26.869144 70.01354,59.137484 70.01354,95.831414 z"
       sodipodi:nodetypes="ssssszsss" />
    <path
       id="rect4418"
       style="fill:#803300;stroke:#1a1a1a;stroke-width:1.44495;stroke-miterlimit:1.41421"
       d="m 151.35131,173.88973 c -14.94825,15.95799 -27.67693,47.37674 -16.70763,67.01304 3.77533,6.75831 21.30209,6.74472 20.94293,4.13248 -0.35961,-2.61549 -0.55239,-5.25831 -0.55301,-7.90573 -0.008,-28.8814 20.53904,-52.29341 45.8731,-52.29341 25.33405,0 45.88063,23.41201 45.87311,52.29341 -7.1e-4,2.64749 -2.90467,7.90573 -0.55568,7.90573 h 26.43008 c 2.34891,0 -0.55239,-5.25831 -0.55302,-7.90573 -0.008,-28.8814 20.53907,-52.29341 45.87312,-52.29341 25.33405,0 45.88062,23.41201 45.8731,52.29341 -7.1e-4,2.64749 -0.19517,5.29031 -0.55568,7.90573 -0.36005,2.61217 16.57205,0.96015 20.08925,-5.73951 10.17811,-19.38747 -0.60637,-49.8651 -15.07762,-65.40601 -18.28681,-19.63854 -49.05053,-14.59143 -74.18272,-17.47615 -24.67336,-2.83207 -51.79326,-2.62195 -74.40281,0.2576 -23.20344,2.95518 -51.41532,-0.87772 -68.36652,17.21855 z"
       sodipodi:nodetypes="sssssssssssssssss" />
    <g
       id="g4203"
       transform="matrix(1.532356,0,0,1.532356,-105.98324,-213.30999)">
      <ellipse
         style="fill:#000000;stroke:#1a1a1a;stroke-miterlimit:1.41421"
         id="path4170"
         cx="204.04179"
         cy="293.20966"
         rx="17.672911"
         ry="16.869596" />
      <ellipse
         style="fill:#ffffff;stroke:#1a1a1a;stroke-miterlimit:1.41421"
         id="path4172"
         cx="198.54272"
         cy="287.48608"
         rx="5.1875772"
         ry="6.4137316" />
    </g>
    <g
       id="g4209"
       transform="matrix(1.532356,0,0,1.532356,-3.6211984,-213.33336)">
      <ellipse
         style="fill:#000000;stroke:#1a1a1a;stroke-miterlimit:1.41421"
         id="ellipse4205"
         cx="204.04179"
         cy="293.20966"
         rx="17.672911"
         ry="16.869596" />
      <ellipse
         style="fill:#ffffff;stroke:#1a1a1a;stroke-miterlimit:1.41421"
         id="ellipse4207"
         cx="198.54272"
         cy="287.48608"
         rx="5.1875772"
         ry="6.4137316" />
    </g>
    <ellipse
       style="fill:#803300;stroke:#1a1a1a;stroke-width:1.53235;stroke-miterlimit:1.41421"
       id="path4512"
       cx="179.8875"
       cy="142.3054"
       rx="4.5910711"
       ry="2.8694193" />
    <ellipse
       style="fill:#803300;stroke:#1a1a1a;stroke-width:1.53235;stroke-miterlimit:1.41421"
       id="path4516"
       cx="204.9471"
       cy="124.515"
       rx="15.494865"
       ry="10.32991" />
    <ellipse
       style="fill:#803300;stroke:#1a1a1a;stroke-width:1.53235;stroke-miterlimit:1.41421"
       id="path4518"
       cx="222.5462"
       cy="88.934212"
       rx="8.6082582"
       ry="7.269196" />
    <ellipse
       style="fill:#803300;stroke:#1a1a1a;stroke-width:1.53235;stroke-miterlimit:1.41421"
       id="path4520"
       cx="136.65494"
       cy="164.30431"
       rx="12.625445"
       ry="8.0343742" />
    <ellipse
       style="fill:#803300;stroke:#1a1a1a;stroke-width:1.53235;stroke-miterlimit:1.41421"
       id="path4522"
       cx="284.1431"
       cy="111.88957"
       rx="17.025223"
       ry="19.512053" />
    <ellipse
       style="fill:#803300;stroke:#1a1a1a;stroke-width:1.53235;stroke-miterlimit:1.41421"
       id="path4524"
       cx="260.80515"
       cy="74.204529"
       rx="2.8694193"
       ry="2.48683" />
    <ellipse
       style="fill:#803300;stroke:#1a1a1a;stroke-width:1.53235;stroke-miterlimit:1.41421"
       id="path4526"
       cx="335.41003"
       cy="135.41881"
       rx="12.816741"
       ry="8.2256689" />
    <ellipse
       style="fill:#803300;stroke:#1a1a1a;stroke-width:1.53235;stroke-miterlimit:1.41421"
       id="path4530"
       cx="379.79041"
       cy="165.64334"
       rx="8.6082582"
       ry="6.6953125" />
    <ellipse
       style="fill:#803300;stroke:#1a1a1a;stroke-width:1.53235;stroke-miterlimit:1.41421"
       id="path4532"
       cx="298.68149"
       cy="75.926178"
       rx="2.8694193"
       ry="1.1477678" />
    <ellipse
       style="fill:#803300;stroke:#1a1a1a;stroke-width:1.53235;stroke-miterlimit:1.41421"
       id="path4534"
       cx="242.44086"
       cy="140.00986"
       rx="3.2520089"
       ry="3.634598" />
  </g>
</svg>
